<?xml version="1.0" encoding="utf-8"?>
<!-- Generator: Adobe Illustrator 16.0.3, SVG Export Plug-In . SVG Version: 6.00 Build 0)  -->
<!DOCTYPE svg PUBLIC "-//W3C//DTD SVG 1.1//EN" "http://www.w3.org/Graphics/SVG/1.1/DTD/svg11.dtd">
<svg version="1.1" id="Layer_1" xmlns="http://www.w3.org/2000/svg" xmlns:xlink="http://www.w3.org/1999/xlink" x="0px" y="0px"
	 width="300px" height="300px" viewBox="0 0 300 300" enable-background="new 0 0 300 300" xml:space="preserve">
<path fill="#F4F4F4" d="M45.542,288.184c-12.358,0-22.415-10.052-22.415-22.41V33.27c0-12.353,10.056-22.409,22.415-22.409h164.8
	l66.343,66.353v188.56c0,12.358-10.052,22.41-22.409,22.41H45.542z"/>
<path fill="#463c5d" d="M69.904,214.892h156.257c-0.24-0.879-0.561-1.754-0.561-2.669v-12.92H69.904"/>
<path fill="#463c5d" d="M69.904,185.75h156.257c-0.24-0.88-0.561-1.756-0.561-2.671v-12.917H69.904"/>
<path fill="#463c5d" d="M69.904,243.427h156.257c-0.24-0.885-0.561-1.756-0.561-2.666v-12.917H69.904"/>
<path fill="#463c5d" d="M207.518,17.684H45.542c-8.605,0-15.592,6.978-15.592,15.586v232.504c0,8.613,6.987,15.588,15.592,15.588
	h208.734c8.622,0,15.587-6.975,15.587-15.588V80.038L207.518,17.684z M254.276,265.773H45.542V33.27h146.394v46.772
	c0,8.595,6.965,15.582,15.581,15.582h46.759V265.773z"/>
<path fill="#463c5d" d="M170.609,79.149l-22.155,12.964c-0.771,1.938-1.455,3.585-3.455,4.859V149h28V80.208
	C173,79.957,171.436,79.607,170.609,79.149z"/>
<path fill="#463c5d" d="M125.373,88.363l-17.964-10.387c-0.37,0.298-0.409,0.544-1.409,0.797V149h29V99.434
	C130,98.375,125.694,93.86,125.373,88.363z"/>
<path fill="#463c5d" d="M91.362,77.15l-10.578,3.725c-1.24,5.316-5.962,9.289-11.652,9.289c-0.401,0-1.132-0.021-1.132-0.06V149h28
	V80.114C94,79.539,92.733,78.521,91.362,77.15z"/>
<path fill="#463c5d" d="M69.216,85.243c3.908,0,7.099-3.188,7.099-7.098c0-0.293-0.055-0.569-0.09-0.847l17.324-6.02
	c1.048,2.603,3.598,4.451,6.574,4.451c2.841,0,5.278-1.688,6.414-4.104L130.58,85.71c-0.173,0.623-0.306,1.267-0.306,1.945
	c0,3.914,3.181,7.094,7.098,7.094c3.51,0,6.409-2.558,6.982-5.907l26.878-15.619c1.306,1.521,3.22,2.505,5.369,2.505
	c3.923,0,7.107-3.184,7.107-7.102c0-3.914-3.185-7.099-7.107-7.099c-3.911,0-7.103,3.185-7.103,7.099
	c0,0.35,0.058,0.697,0.106,1.034l-25.818,15.005c-1.125-2.426-3.567-4.113-6.416-4.113c-1.829,0-3.478,0.711-4.735,1.848
	l-25.541-14.956c-0.569-3.354-3.468-5.912-6.973-5.912c-3.457,0-6.343,2.478-6.965,5.756L74.7,73.699
	c-1.299-1.604-3.265-2.651-5.494-2.651c-3.917,0-7.096,3.18-7.096,7.098C62.11,82.055,65.294,85.243,69.216,85.243z M176.611,65.424
	c1.769,0,3.202,1.44,3.202,3.208s-1.434,3.203-3.202,3.203c-1.764,0-3.203-1.436-3.203-3.203S174.845,65.424,176.611,65.424z
	 M137.376,84.454c1.765,0,3.204,1.43,3.204,3.207c0,1.759-1.438,3.198-3.204,3.198c-1.767,0-3.202-1.439-3.202-3.198
	C134.174,85.884,135.603,84.454,137.376,84.454z M100.123,65.424c1.767,0,3.197,1.44,3.197,3.208s-1.431,3.203-3.197,3.203
	c-1.769,0-3.204-1.436-3.204-3.203S98.354,65.424,100.123,65.424z M69.216,74.938c1.763,0,3.199,1.439,3.199,3.207
	s-1.438,3.202-3.199,3.202c-1.769,0-3.207-1.435-3.207-3.202S67.447,74.938,69.216,74.938z"/>
</svg>
