<?xml version="1.0" encoding="utf-8"?>
<!-- Generator: Adobe Illustrator 16.0.3, SVG Export Plug-In . SVG Version: 6.00 Build 0)  -->
<!DOCTYPE svg PUBLIC "-//W3C//DTD SVG 1.1//EN" "http://www.w3.org/Graphics/SVG/1.1/DTD/svg11.dtd">
<svg version="1.1" id="Layer_1" xmlns="http://www.w3.org/2000/svg" xmlns:xlink="http://www.w3.org/1999/xlink" x="0px" y="0px"
	 width="300px" height="300px" viewBox="0 0 300 300" enable-background="new 0 0 300 300" xml:space="preserve">
<g>
	<rect x="18.418" y="52.368" fill="#F4F4F4" width="264.239" height="195.376"/>
	<path fill="#F4F4F4" d="M295.979,244.579c0,10.485-8.5,18.983-18.983,18.983H23.387c-10.484,0-18.982-8.498-18.982-18.983V54.753
		c0-10.484,8.498-18.982,18.982-18.982h253.609c10.483,0,18.983,8.499,18.983,18.982V244.579z M270.163,236.228V102.59H31.741
		v133.638H270.163z M270.163,79.811V63.106H31.741v16.705H270.163z"/>
	<path fill="#463c5d" d="M10.066,55.142v189.827c0,7.129,5.779,12.908,12.909,12.908h253.607c7.129,0,12.909-5.779,12.909-12.908
		V55.142c0-7.129-5.78-12.908-12.909-12.908H22.975C15.845,42.234,10.066,48.013,10.066,55.142z M277,243c-83,0-168,0-251,0
		c0-49,0-97,0-146c83,0,168,0,251,0C277,146,277,194,277,243z M277,87c-83,0-168,0-251,0c0-10,0-20,0-30c83,0,168,0,251,0
		C277,67,277,77,277,87z"/>
	<path fill="#463c5d" d="M85.201,72.172c0.012,2.771-2.249,5.054-4.995,5.03c-2.756-0.021-4.958-2.308-4.913-5.1
		c0.042-2.713,2.123-4.782,4.853-4.831C83.009,67.221,85.189,69.335,85.201,72.172z"/>
	<path fill="#463c5d" d="M45.249,72.313c-0.056,2.735-2.451,5-5.164,4.893c-2.752-0.107-4.895-2.451-4.779-5.239
		c0.116-2.715,2.236-4.721,4.984-4.704C43.075,67.274,45.307,69.548,45.249,72.313z"/>
	<path fill="#463c5d" d="M60.137,77.202c-2.719-0.066-5.018-2.484-4.902-5.166c0.115-2.759,2.434-4.864,5.252-4.758
		c2.686,0.099,4.757,2.274,4.738,4.964C65.204,75.014,62.892,77.268,60.137,77.202z"/>
</g>
<g>
	<rect x="33" y="105" fill-rule="evenodd" clip-rule="evenodd" fill="#463c5d" width="42" height="41"/>
	<rect x="33" y="150" fill-rule="evenodd" clip-rule="evenodd" fill="#463c5d" width="42" height="40"/>
	<rect x="33" y="195" fill-rule="evenodd" clip-rule="evenodd" fill="#463c5d" width="42" height="40"/>
</g>
<g>
	<path fill="#463c5d" d="M248.616,228.774H102.653c-4.276,0-7.741-3.466-7.741-7.741v-99.736c0-4.276,3.465-7.742,7.741-7.742
		h145.963c4.275,0,7.741,3.466,7.741,7.742v99.736C256.357,225.309,252.892,228.774,248.616,228.774z M101.981,221.703h147.305
		V120.626H101.981V221.703z"/>
	<g>
		<rect x="126.926" y="174.111" fill="#463c5d" width="20.819" height="35.746"/>
		<rect x="152.459" y="145.436" fill="#463c5d" width="20.818" height="64.421"/>
		<rect x="177.992" y="161.935" fill="#463c5d" width="20.818" height="47.923"/>
		<rect x="203.524" y="132.473" fill="#463c5d" width="20.819" height="77.385"/>
		<g>
			<g>
				<path fill="#F4F4F4" d="M137.335,179.561c-3.573,0-6.481,2.909-6.481,6.482s2.908,6.481,6.481,6.481
					c3.574,0,6.482-2.908,6.482-6.481c0-1.43-0.844-2.748-1.631-3.821l4.814-6.024V174h-0.57l-5.586,6.545
					C139.831,179.89,138.628,179.561,137.335,179.561z M137.335,190.167c-2.274,0-4.124-1.85-4.124-4.124s1.85-4.124,4.124-4.124
					s4.125,1.85,4.125,4.124S139.609,190.167,137.335,190.167z"/>
				<path fill="#F4F4F4" d="M213.935,135.959c-3.574,0-6.481,2.907-6.481,6.481c0,1.646,0.622,3.146,1.636,4.29l-5.564,6.287
					l-0.088,3.74l7.62-8.518c0.87,0.432,1.844,0.682,2.878,0.682c3.573,0,6.48-2.907,6.48-6.481
					C220.415,138.867,217.508,135.959,213.935,135.959z M213.935,146.565c-2.275,0-4.124-1.85-4.124-4.125
					c0-2.274,1.849-4.125,4.124-4.125c2.274,0,4.123,1.851,4.123,4.125C218.058,144.715,216.209,146.565,213.935,146.565z"/>
				<path fill="#F4F4F4" d="M173.277,161.359l-4.008-2.357c0.303-0.749,0.473-1.564,0.473-2.421c0-3.573-2.907-6.48-6.48-6.48
					s-6.482,2.907-6.482,6.48c0,1.483-0.223,2.848,0.618,3.941L151,167.107v3.612l8.148-8.62c0.987,0.607,2.508,0.963,3.748,0.963
					c1.885,0,3.764-0.814,4.95-2.105l5.464,3.233L173.277,161.359z M163.262,160.707c-2.274,0-4.125-1.851-4.125-4.126
					c0-2.272,1.851-4.123,4.125-4.123c2.273,0,4.124,1.851,4.124,4.123C167.386,158.856,165.535,160.707,163.262,160.707z"/>
				<path fill="#F4F4F4" d="M198.811,162.088l-1.816-0.153l-5.086,5.982c-1.087-0.824-2.436-1.318-3.899-1.318
					c-1.517,0-2.91,0.527-4.015,1.403l-6.002-3.812l0.079,2.868l4.376,2.711c-0.581,0.97-0.921,2.1-0.921,3.311
					c0,3.574,2.909,6.48,6.482,6.48c3.572,0,6.481-2.906,6.481-6.48c0-1.28-0.377-2.469-1.02-3.477l5.353-6.282L198.811,162.088z
					 M188.009,177.205c-2.274,0-4.125-1.851-4.125-4.125c0-2.273,1.851-4.124,4.125-4.124c2.273,0,4.124,1.851,4.124,4.124
					C192.133,175.354,190.282,177.205,188.009,177.205z"/>
			</g>
		</g>
	</g>
</g>
</svg>
