<?xml version="1.0" encoding="utf-8"?>
<!-- Generator: Adobe Illustrator 16.0.3, SVG Export Plug-In . SVG Version: 6.00 Build 0)  -->
<!DOCTYPE svg PUBLIC "-//W3C//DTD SVG 1.1//EN" "http://www.w3.org/Graphics/SVG/1.1/DTD/svg11.dtd">
<svg version="1.1" id="Layer_1" xmlns="http://www.w3.org/2000/svg" xmlns:xlink="http://www.w3.org/1999/xlink" x="0px" y="0px"
	 width="300px" height="300px" viewBox="0 0 300 300" enable-background="new 0 0 300 300" xml:space="preserve">
<g>
	<rect x="43.426" y="46.167" fill="#F4F4F4" width="212.544" height="212.673"/>
	<path fill="#F4F4F4" d="M252,294v-25H49v25H28v-25H3v-22h25V56H3V35h25V5h21v30h203V5h21v30h25v21h-25v191h25v22h-25v25H252z
		 M252,247V56H49v191H252z"/>
	<path fill="#00B5E5" d="M292.575,50.637V40.162h-24.88V10.044H257.22v30.118H43.78V10.044H33.305v30.118H8.425v10.475h24.879
		v201.654H8.425v11.785h24.879v24.88H43.78v-24.88H257.22v24.88h10.476v-24.88h24.88v-11.785h-24.88V50.637H292.575z
		 M257.22,252.291H43.78V50.637H257.22V252.291z"/>
	<g>
		<g>
			<g>
				<g>
					<g>
						<path fill="#00B5E5" d="M151.456,112.924c0,0,2.252,1.231,4.404,1.486c2.148,0.256,8.141,2.508,9.421,5.528
							c1.28,3.021,2.871,6.199-0.309,10.397c0,0-5.761,5.924-12.594,12.946l13.063,12.986l11.9-11.952c0,0,6.067-6.3,8.602-6.222
							c2.536,0.078,12.982,9.348,10.908,29.342l9.216,8.834c0,0,12.265-31.75-0.024-48.544l-23.146-23.148
							c0,0-4.815-0.152-5.326-0.666c-0.514-0.512-2.814-2.968-3.688-6.248c-0.872-3.276-2.918-5.99-3.07-6.093
							c-0.156-0.102-8.042-8.037-8.042-8.037s-1.227-1.693-3.689,0.457c-2.456,2.152-16.282,16.288-16.282,16.288
							s-2.05,1.893-0.564,3.738C143.723,105.857,151.456,112.924,151.456,112.924z"/>
						<path fill="#00B5E5" d="M129.702,165.815c-1.309-0.386-4.802-0.988-8.05,2.26c-4.1,4.099-34.006,33.8-34.006,33.8
							s-6.552,4.188-2.458,11.88c0,0,4.046,7.479,10.089,9.984c6.041,2.512,8.45,0.516,9.833-0.716l36.361-36.537
							c0,0,3.354-2.7,1.52-7.422L129.702,165.815z"/>
					</g>
				</g>
				<g>
					<g>
						<path fill="#00B5E5" d="M215.671,206.518l-15.364-11.267l-51.08-50.775c0,0-13.404-12.598-12.866-13.29
							c0.536-0.69,7.72-15.512-5.032-29.804c-12.75-14.286-25.349-12.75-25.349-12.75l-2.919,3.074c0,0,5.994,5.89,10.344,10.344
							c4.354,4.453,1.844,11.164,1.536,12.138c-0.304,0.971-3.686,8.039-11.164,12.394c-7.474,4.35-14.238,0.51-14.238,0.51
							l-10.956-10.908l-2.814,3.276c-1.026,10.24,9.627,22.33,9.627,22.33c16.792,15.773,32.771,8.19,32.771,8.19l64.116,63.909
							l11.059,14.954l6.352,1.843l17.616-18.024L215.671,206.518z M198.259,218.705c-4.301,0-7.782-3.486-7.782-7.784
							c0-4.302,3.481-7.782,7.782-7.782c4.299,0,7.785,3.48,7.785,7.782C206.044,215.219,202.558,218.705,198.259,218.705z"/>
					</g>
				</g>
			</g>
		</g>
	</g>
</g>
</svg>
