<?xml version="1.0" encoding="utf-8"?>
<!-- Generator: Adobe Illustrator 15.0.2, SVG Export Plug-In . SVG Version: 6.00 Build 0)  -->
<!DOCTYPE svg PUBLIC "-//W3C//DTD SVG 1.1//EN" "http://www.w3.org/Graphics/SVG/1.1/DTD/svg11.dtd">
<svg version="1.1" id="Layer_1" xmlns="http://www.w3.org/2000/svg" xmlns:xlink="http://www.w3.org/1999/xlink" x="0px" y="0px"
	 width="256px" height="256px" viewBox="0 0 256 256" enable-background="new 0 0 256 256" xml:space="preserve">
<g>
	<g>
		<g>
			<g>
				<g>
					<path fill="#DDE72B" d="M62.436,106.45V37.224c0-15.065-12.216-27.283-27.275-27.283c-15.064,0-27.275,12.217-27.275,27.283
						v99.931l43.771-15.916c-0.013-0.213-0.066-0.422-0.066-0.635C51.597,113.829,56.201,108.176,62.436,106.45z"/>
					<path fill="#DDE72B" d="M53.556,127.806L7.892,144.407v73.495c0,15.071,12.21,27.274,27.275,27.274
						c15.059,0,27.275-12.203,27.275-27.274V134.76C58.626,133.695,55.459,131.18,53.556,127.806z"/>
					<path fill="#1DA3DE" d="M81.083,120.603c0,0.755-0.113,1.487-0.223,2.208l36.032,16.326c1.933-2.495,4.631-4.339,7.759-5.177
						V71.625c0-15.065-12.21-27.275-27.269-27.275c-15.064,0-27.275,12.21-27.275,27.275v34.777
						C76.402,108.086,81.083,113.782,81.083,120.603z"/>
					<path fill="#1DA3DE" d="M70.101,134.799v48.688c0,15.059,12.21,27.275,27.275,27.275c15.059,0,27.27-12.217,27.27-27.275
						v-21.181c-6.262-1.703-10.903-7.372-10.903-14.173c0-0.965,0.103-1.896,0.28-2.808l-35.716-16.18
						C76.343,131.898,73.462,133.908,70.101,134.799z"/>
				</g>
				<path fill="#96CD41" d="M186.871,106.43V27.269C186.871,12.21,174.661,0,159.593,0c-15.059,0-27.275,12.21-27.275,27.269
					v106.692c3.19,0.864,5.929,2.741,7.864,5.303l36.06-15.847c-0.17-0.915-0.286-1.846-0.286-2.814
					C175.962,113.802,180.61,108.119,186.871,106.43z"/>
				<path fill="#96CD41" d="M132.317,162.307v65.544c0,15.065,12.217,27.281,27.275,27.281c15.068,0,27.278-12.216,27.278-27.281
					v-93.064c-3.128-0.852-5.818-2.688-7.762-5.184l-36.156,15.896c0.157,0.865,0.267,1.73,0.267,2.635
					C143.227,154.935,138.585,160.604,132.317,162.307z"/>
			</g>
			<path fill="#D93097" d="M202.515,111.869l46.572-20.472V55.702c0-15.058-12.217-27.269-27.275-27.269
				c-15.065,0-27.274,12.21-27.274,27.269v50.735C197.777,107.311,200.564,109.244,202.515,111.869z"/>
			<path fill="#D93097" d="M194.537,134.772v64.658c0,15.064,12.209,27.276,27.274,27.276c15.059,0,27.275-12.212,27.275-27.276
				V98.847L205.2,118.138c0.137,0.801,0.252,1.613,0.252,2.465C205.452,127.403,200.798,133.069,194.537,134.772z"/>
			<circle fill="#DDE72B" cx="190.727" cy="120.726" r="8.348"/>
			<path fill="#DDE72B" d="M128.495,139.749c4.615,0,8.354,3.741,8.354,8.358c0,4.611-3.739,8.351-8.354,8.351
				c-4.612,0-8.351-3.739-8.351-8.351C120.144,143.49,123.883,139.749,128.495,139.749z"/>
			<path fill="#DDE72B" d="M66.342,112.255c4.607,0,8.344,3.739,8.344,8.348c0,4.611-3.736,8.347-8.344,8.347
				c-4.611,0-8.347-3.736-8.347-8.347C57.995,115.994,61.73,112.255,66.342,112.255z"/>
		</g>
	</g>
</g>
</svg>
